<svg width="16" height="16" viewBox="0 0 16 16" fill="none" xmlns="http://www.w3.org/2000/svg">
<path d="M6.00064 11.6668C6.00064 10.7464 5.25445 10.0002 4.33398 10.0002C3.4135 10.0002 2.66731 10.7464 2.66731 11.6668C2.66731 12.5873 3.4135 13.3335 4.33398 13.3335C5.25445 13.3335 6.00064 12.5873 6.00064 11.6668ZM8.66731 4.3335C8.66731 3.98272 8.72855 3.64638 8.83918 3.3335H3.66731C3.11502 3.3335 2.66731 3.78121 2.66731 4.3335C2.66731 4.88578 3.11502 5.3335 3.66731 5.3335H8.83918C8.72855 5.02061 8.66731 4.68427 8.66731 4.3335ZM7.33398 11.6668C7.33398 12.0176 7.27274 12.3539 7.1621 12.6668H12.334C12.8863 12.6668 13.334 12.2191 13.334 11.6668C13.334 11.1145 12.8863 10.6668 12.334 10.6668H7.1621C7.27274 10.9797 7.33398 11.3161 7.33398 11.6668ZM14.6673 11.6668C14.6673 12.9555 13.6227 14.0002 12.334 14.0002H6.21874C5.70359 14.4168 5.04813 14.6668 4.33398 14.6668C2.67712 14.6668 1.33398 13.3237 1.33398 11.6668C1.33398 10.01 2.67712 8.66683 4.33398 8.66683C5.04813 8.66683 5.70359 8.91686 6.21874 9.3335H12.334C13.6227 9.3335 14.6673 10.3782 14.6673 11.6668ZM10.0007 4.3335C10.0007 5.25397 10.7469 6.00016 11.6673 6.00016C12.5878 6.00016 13.334 5.25397 13.334 4.3335C13.334 3.41302 12.5878 2.66683 11.6673 2.66683C10.7469 2.66683 10.0007 3.41302 10.0007 4.3335ZM14.6673 4.3335C14.6673 5.99035 13.3242 7.3335 11.6673 7.3335C10.9532 7.3335 10.2977 7.08347 9.78254 6.66683H3.66731C2.37865 6.66683 1.33398 5.62216 1.33398 4.3335C1.33398 3.04483 2.37865 2.00016 3.66731 2.00016H9.78254C10.2977 1.58353 10.9532 1.3335 11.6673 1.3335C13.3242 1.3335 14.6673 2.67664 14.6673 4.3335Z" fill="#8F8F8F"/>
</svg>
