<svg width="16" height="16" viewBox="0 0 16 16" fill="none" xmlns="http://www.w3.org/2000/svg">
<path d="M6.00016 11.6668C6.00016 10.7464 5.25397 10.0002 4.3335 10.0002C3.41302 10.0002 2.66683 10.7464 2.66683 11.6668C2.66683 12.5873 3.41302 13.3335 4.3335 13.3335C5.25397 13.3335 6.00016 12.5873 6.00016 11.6668ZM8.66683 4.3335C8.66683 3.98272 8.72807 3.64638 8.8387 3.3335H3.66683C3.11454 3.3335 2.66683 3.78121 2.66683 4.3335C2.66683 4.88578 3.11454 5.3335 3.66683 5.3335H8.8387C8.72807 5.02061 8.66683 4.68427 8.66683 4.3335ZM7.3335 11.6668C7.3335 12.0176 7.27226 12.3539 7.16162 12.6668H12.3335C12.8858 12.6668 13.3335 12.2191 13.3335 11.6668C13.3335 11.1145 12.8858 10.6668 12.3335 10.6668H7.16162C7.27226 10.9797 7.3335 11.3161 7.3335 11.6668ZM14.6668 11.6668C14.6668 12.9555 13.6222 14.0002 12.3335 14.0002H6.21826C5.70311 14.4168 5.04765 14.6668 4.3335 14.6668C2.67664 14.6668 1.3335 13.3237 1.3335 11.6668C1.3335 10.01 2.67664 8.66683 4.3335 8.66683C5.04765 8.66683 5.70311 8.91686 6.21826 9.3335H12.3335C13.6222 9.3335 14.6668 10.3782 14.6668 11.6668ZM10.0002 4.3335C10.0002 5.25397 10.7464 6.00016 11.6668 6.00016C12.5873 6.00016 13.3335 5.25397 13.3335 4.3335C13.3335 3.41302 12.5873 2.66683 11.6668 2.66683C10.7464 2.66683 10.0002 3.41302 10.0002 4.3335ZM14.6668 4.3335C14.6668 5.99035 13.3237 7.3335 11.6668 7.3335C10.9527 7.3335 10.2972 7.08347 9.78206 6.66683H3.66683C2.37817 6.66683 1.3335 5.62216 1.3335 4.3335C1.3335 3.04483 2.37817 2.00016 3.66683 2.00016H9.78206C10.2972 1.58353 10.9527 1.3335 11.6668 1.3335C13.3237 1.3335 14.6668 2.67664 14.6668 4.3335Z" fill="currentColor"/>
</svg>
