<svg width="16" height="16" viewBox="0 0 16 16" fill="none" xmlns="http://www.w3.org/2000/svg">
<path d="M13.334 12.3997C13.334 12.2022 13.3332 12.094 13.3268 12.0163C13.3266 12.0133 13.3258 12.0105 13.3255 12.0078C13.3231 12.0076 13.3205 12.0074 13.3177 12.0072C13.24 12.0008 13.1318 12 12.9343 12H3.06707C2.86955 12 2.76129 12.0008 2.6836 12.0072C2.68063 12.0074 2.67781 12.0076 2.67514 12.0078C2.6749 12.0105 2.67473 12.0133 2.67449 12.0163C2.66814 12.094 2.66733 12.2022 2.66733 12.3997V12.9336C2.66733 13.1311 2.66814 13.2394 2.67449 13.3171C2.67471 13.3198 2.67492 13.3224 2.67514 13.3249C2.67783 13.3251 2.68061 13.3259 2.6836 13.3262C2.76129 13.3325 2.86955 13.3333 3.06707 13.3333H12.9343C13.1318 13.3333 13.24 13.3325 13.3177 13.3262C13.3205 13.3259 13.323 13.3251 13.3255 13.3249C13.3258 13.3224 13.3266 13.3198 13.3268 13.3171C13.3332 13.2394 13.334 13.1311 13.334 12.9336V12.3997ZM10.334 10.6667H12.0007V6.66667H10.334V10.6667ZM7.00066 10.6667H9.00066V6.66667H7.00066V10.6667ZM4.00066 10.6667H5.66733V6.66667H4.00066V10.6667ZM13.3288 3.87891C13.3286 3.87646 13.3277 3.87393 13.3275 3.87174L13.3229 3.87044C13.2634 3.85254 13.1792 3.83403 13.0209 3.79883L8.08725 2.70247C8.04111 2.69222 8.01854 2.68683 8.00196 2.68359C7.98887 2.68104 7.99155 2.68214 8.00066 2.68294C8.00977 2.68214 8.01245 2.68104 7.99936 2.68359C7.98279 2.68683 7.96022 2.69222 7.91407 2.70247L2.98048 3.79883C2.82209 3.83403 2.73794 3.85254 2.6784 3.87044L2.67319 3.87174C2.67301 3.87391 2.67272 3.87648 2.67254 3.87891C2.668 3.94089 2.66733 4.02683 2.66733 4.1888V4.93359C2.66733 5.13112 2.66814 5.23937 2.67449 5.31706C2.67471 5.31979 2.67492 5.32239 2.67514 5.32487C2.67783 5.32512 2.68061 5.32593 2.6836 5.32617C2.76129 5.33252 2.86955 5.33333 3.06707 5.33333H12.9343C13.1318 5.33333 13.24 5.33252 13.3177 5.32617C13.3205 5.32595 13.323 5.3251 13.3255 5.32487C13.3258 5.32238 13.3266 5.31981 13.3268 5.31706C13.3332 5.23937 13.334 5.13112 13.334 4.93359V4.1888C13.334 4.02683 13.3333 3.94089 13.3288 3.87891ZM14.6673 4.93359C14.6673 5.10919 14.6681 5.28124 14.6563 5.42578C14.6438 5.57812 14.6143 5.75796 14.5222 5.9388C14.3943 6.18964 14.1903 6.39366 13.9395 6.52148C13.7586 6.61363 13.5788 6.64313 13.4265 6.6556C13.3968 6.65802 13.3657 6.65736 13.334 6.65885V10.6738C13.3657 10.6753 13.3968 10.6753 13.4265 10.6777C13.5788 10.6902 13.7586 10.7197 13.9395 10.8118C14.159 10.9237 14.3426 11.0939 14.4707 11.3027L14.5222 11.3945L14.5801 11.5299C14.6278 11.6638 14.6469 11.7934 14.6563 11.9076C14.6681 12.0521 14.6673 12.2242 14.6673 12.3997V12.9336C14.6673 13.1092 14.6681 13.2812 14.6563 13.4258C14.6438 13.5781 14.6143 13.758 14.5222 13.9388C14.3943 14.1896 14.1903 14.3937 13.9395 14.5215C13.7586 14.6136 13.5788 14.6431 13.4265 14.6556C13.2819 14.6674 13.1099 14.6667 12.9343 14.6667H3.06707C2.89148 14.6667 2.71942 14.6674 2.57488 14.6556C2.42254 14.6431 2.2427 14.6136 2.06186 14.5215C1.81102 14.3937 1.607 14.1896 1.47918 13.9388C1.38703 13.758 1.35753 13.5781 1.34506 13.4258C1.33325 13.2812 1.33399 13.1092 1.334 12.9336V12.3997C1.33399 12.2242 1.33325 12.0521 1.34506 11.9076C1.35753 11.7552 1.38704 11.5754 1.47918 11.3945C1.607 11.1437 1.81103 10.9397 2.06186 10.8118C2.2427 10.7197 2.42254 10.6902 2.57488 10.6777C2.6045 10.6753 2.63563 10.6753 2.66733 10.6738V6.65885C2.63564 6.65736 2.60449 6.65802 2.57488 6.6556C2.42254 6.64313 2.2427 6.61363 2.06186 6.52148C1.81102 6.39366 1.607 6.18964 1.47918 5.9388C1.38703 5.75796 1.35753 5.57812 1.34506 5.42578C1.33325 5.28124 1.33399 5.10919 1.334 4.93359V4.1888C1.334 4.04602 1.33352 3.90325 1.34246 3.78125C1.35204 3.65074 1.3745 3.49914 1.44207 3.3418C1.53751 3.11962 1.69184 2.9278 1.88803 2.78646C2.02697 2.68636 2.16961 2.63142 2.29493 2.59375C2.41218 2.55852 2.5519 2.52775 2.69142 2.49674L7.62436 1.40039C7.69436 1.38484 7.78692 1.36335 7.88413 1.35482C7.92288 1.35142 7.9618 1.34961 8.00066 1.34961L8.1172 1.35482L8.25717 1.375C8.30113 1.38347 8.34197 1.39261 8.37696 1.40039L13.3099 2.49674C13.4494 2.52775 13.5892 2.55852 13.7064 2.59375C13.8317 2.63142 13.9744 2.68636 14.1133 2.78646C14.2851 2.91023 14.4247 3.07271 14.5209 3.26042L14.5593 3.3418L14.6016 3.45833C14.6369 3.57345 14.6517 3.68328 14.6589 3.78125C14.6678 3.90325 14.6673 4.04602 14.6673 4.1888V4.93359Z" fill="#8F8F8F"/>
</svg>
