<svg width="16" height="16" viewBox="0 0 16 16" fill="none" xmlns="http://www.w3.org/2000/svg">
<path d="M13.3335 12.3997C13.3335 12.2022 13.3327 12.094 13.3263 12.0163C13.3261 12.0133 13.3253 12.0105 13.325 12.0078C13.3226 12.0076 13.32 12.0074 13.3172 12.0072C13.2395 12.0008 13.1313 12 12.9338 12H3.06658C2.86906 12 2.7608 12.0008 2.68311 12.0072C2.68014 12.0074 2.67732 12.0076 2.67465 12.0078C2.67441 12.0105 2.67424 12.0133 2.674 12.0163C2.66765 12.094 2.66684 12.2022 2.66684 12.3997V12.9336C2.66684 13.1311 2.66765 13.2394 2.674 13.3171C2.67422 13.3198 2.67443 13.3224 2.67465 13.3249C2.67734 13.3251 2.68012 13.3259 2.68311 13.3262C2.7608 13.3325 2.86906 13.3333 3.06658 13.3333H12.9338C13.1313 13.3333 13.2395 13.3325 13.3172 13.3262C13.32 13.3259 13.3225 13.3251 13.325 13.3249C13.3253 13.3224 13.3261 13.3198 13.3263 13.3171C13.3327 13.2394 13.3335 13.1311 13.3335 12.9336V12.3997ZM10.3335 10.6667H12.0002V6.66667H10.3335V10.6667ZM7.00017 10.6667H9.00017V6.66667H7.00017V10.6667ZM4.00017 10.6667H5.66684V6.66667H4.00017V10.6667ZM13.3283 3.87891C13.3281 3.87646 13.3272 3.87393 13.327 3.87174C13.3255 3.8713 13.324 3.87091 13.3224 3.87044C13.2629 3.85254 13.1787 3.83403 13.0204 3.79883L8.08676 2.70247C8.04062 2.69222 8.01805 2.68683 8.00147 2.68359C7.98838 2.68104 7.99106 2.68214 8.00017 2.68294C8.00928 2.68214 8.01196 2.68104 7.99887 2.68359C7.9823 2.68683 7.95973 2.69222 7.91358 2.70247L2.97999 3.79883C2.8216 3.83403 2.73745 3.85254 2.67791 3.87044C2.67612 3.87098 2.67433 3.87124 2.6727 3.87174C2.67252 3.87391 2.67223 3.87648 2.67205 3.87891C2.66751 3.94089 2.66684 4.02683 2.66684 4.1888V4.93359C2.66684 5.13112 2.66765 5.23937 2.674 5.31706C2.67422 5.31979 2.67443 5.32239 2.67465 5.32487C2.67734 5.32512 2.68012 5.32593 2.68311 5.32617C2.7608 5.33252 2.86906 5.33333 3.06658 5.33333H12.9338C13.1313 5.33333 13.2395 5.33252 13.3172 5.32617C13.32 5.32595 13.3225 5.3251 13.325 5.32487C13.3253 5.32238 13.3261 5.31981 13.3263 5.31706C13.3327 5.23937 13.3335 5.13112 13.3335 4.93359V4.1888C13.3335 4.02683 13.3328 3.94089 13.3283 3.87891ZM14.6668 4.93359C14.6668 5.10919 14.6676 5.28124 14.6558 5.42578C14.6433 5.57812 14.6138 5.75796 14.5217 5.9388C14.3938 6.18964 14.1898 6.39366 13.939 6.52148C13.7581 6.61363 13.5783 6.64313 13.426 6.6556C13.3963 6.65802 13.3652 6.65736 13.3335 6.65885V10.6738C13.3652 10.6753 13.3963 10.6753 13.426 10.6777C13.5783 10.6902 13.7581 10.7197 13.939 10.8118C14.1585 10.9237 14.3421 11.0939 14.4702 11.3027L14.5217 11.3945L14.5796 11.5299C14.6273 11.6638 14.6464 11.7934 14.6558 11.9076C14.6676 12.0521 14.6668 12.2242 14.6668 12.3997V12.9336C14.6668 13.1092 14.6676 13.2812 14.6558 13.4258C14.6433 13.5781 14.6138 13.758 14.5217 13.9388C14.3938 14.1896 14.1898 14.3937 13.939 14.5215C13.7581 14.6136 13.5783 14.6431 13.426 14.6556C13.2814 14.6674 13.1094 14.6667 12.9338 14.6667H3.06658C2.89099 14.6667 2.71893 14.6674 2.57439 14.6556C2.42205 14.6431 2.24221 14.6136 2.06137 14.5215C1.81053 14.3937 1.60651 14.1896 1.47869 13.9388C1.38654 13.758 1.35704 13.5781 1.34457 13.4258C1.33276 13.2812 1.3335 13.1092 1.33351 12.9336V12.3997C1.3335 12.2242 1.33276 12.0521 1.34457 11.9076C1.35704 11.7552 1.38655 11.5754 1.47869 11.3945C1.60651 11.1437 1.81054 10.9397 2.06137 10.8118C2.24221 10.7197 2.42205 10.6902 2.57439 10.6777C2.60401 10.6753 2.63514 10.6753 2.66684 10.6738V6.65885C2.63515 6.65736 2.604 6.65802 2.57439 6.6556C2.42205 6.64313 2.24221 6.61363 2.06137 6.52148C1.81053 6.39366 1.60651 6.18964 1.47869 5.9388C1.38654 5.75796 1.35704 5.57812 1.34457 5.42578C1.33276 5.28124 1.3335 5.10919 1.33351 4.93359V4.1888C1.33351 4.04602 1.33303 3.90325 1.34197 3.78125C1.35155 3.65074 1.37401 3.49914 1.44158 3.3418C1.53702 3.11962 1.69135 2.9278 1.88754 2.78646C2.02648 2.68636 2.16912 2.63142 2.29444 2.59375C2.41169 2.55852 2.55141 2.52775 2.69093 2.49674L7.62387 1.40039C7.69387 1.38484 7.78643 1.36335 7.88364 1.35482C7.92239 1.35142 7.96131 1.34961 8.00017 1.34961L8.11671 1.35482L8.25668 1.375C8.30064 1.38347 8.34148 1.39261 8.37647 1.40039L13.3094 2.49674C13.4489 2.52775 13.5887 2.55852 13.7059 2.59375C13.8312 2.63142 13.9739 2.68636 14.1128 2.78646C14.2846 2.91023 14.4242 3.07271 14.5204 3.26042L14.5588 3.3418L14.6011 3.45833C14.6364 3.57345 14.6512 3.68328 14.6584 3.78125C14.6673 3.90325 14.6668 4.04602 14.6668 4.1888V4.93359Z" fill="black" fill-opacity="0.48"/>
</svg>
