<svg width="16" height="16" viewBox="0 0 16 16" fill="none" xmlns="http://www.w3.org/2000/svg">
<path d="M12.6667 4.53329C12.6667 3.96236 12.6664 3.5742 12.6419 3.27417C12.618 2.98189 12.5746 2.83221 12.5215 2.72795C12.3937 2.47711 12.1896 2.27309 11.9388 2.14526C11.8345 2.09214 11.6849 2.0487 11.3926 2.02482C11.0926 2.00032 10.7044 2.00008 10.1335 2.00008H5.86654C5.29561 2.00008 4.90745 2.00032 4.60742 2.02482C4.31515 2.0487 4.16547 2.09214 4.0612 2.14526C3.81036 2.27309 3.60634 2.47711 3.47852 2.72795C3.42539 2.83221 3.38195 2.98189 3.35807 3.27417C3.33357 3.5742 3.33333 3.96236 3.33333 4.53329V11.4669C3.33333 12.0378 3.33357 12.426 3.35807 12.726C3.38195 13.0183 3.42539 13.168 3.47852 13.2722C3.60634 13.5231 3.81036 13.7271 4.0612 13.8549C4.16547 13.908 4.31515 13.9515 4.60742 13.9753C4.90745 13.9999 5.29561 14.0001 5.86654 14.0001H10.1335C10.7044 14.0001 11.0926 13.9999 11.3926 13.9753C11.6849 13.9515 11.8345 13.908 11.9388 13.8549C12.1896 13.7271 12.3937 13.5231 12.5215 13.2722C12.5746 13.168 12.618 13.0183 12.6419 12.726C12.6664 12.426 12.6667 12.0378 12.6667 11.4669V4.53329ZM6.66667 9.33342C7.03486 9.33342 7.33333 9.63189 7.33333 10.0001C7.33333 10.3683 7.03486 10.6667 6.66667 10.6667H5.33333C4.96514 10.6667 4.66667 10.3683 4.66667 10.0001C4.66667 9.63189 4.96514 9.33342 5.33333 9.33342H6.66667ZM9.33333 6.66675C9.70152 6.66675 10 6.96523 10 7.33342C10 7.70161 9.70152 8.00008 9.33333 8.00008H5.33333C4.96514 8.00008 4.66667 7.70161 4.66667 7.33342C4.66667 6.96523 4.96514 6.66675 5.33333 6.66675H9.33333ZM10.6667 4.00008C11.0349 4.00008 11.3333 4.29856 11.3333 4.66675C11.3333 5.03494 11.0349 5.33342 10.6667 5.33342H5.33333C4.96514 5.33342 4.66667 5.03494 4.66667 4.66675C4.66667 4.29856 4.96514 4.00008 5.33333 4.00008H10.6667ZM14 11.4669C14 12.0159 14.0007 12.4678 13.9707 12.8347C13.9401 13.2094 13.8745 13.5542 13.7096 13.8777C13.454 14.3794 13.0459 14.7874 12.5443 15.0431C12.2207 15.2079 11.876 15.2735 11.5013 15.3041C11.1344 15.3341 10.6825 15.3334 10.1335 15.3334H5.86654C5.31754 15.3334 4.86562 15.3341 4.4987 15.3041C4.124 15.2735 3.77927 15.2079 3.45573 15.0431C2.95406 14.7874 2.54601 14.3794 2.29037 13.8777C2.12552 13.5542 2.05992 13.2094 2.0293 12.8347C1.99932 12.4678 2 12.0159 2 11.4669V4.53329C2 3.98429 1.99932 3.53237 2.0293 3.16545C2.05992 2.79074 2.12552 2.44602 2.29037 2.12248C2.54601 1.62081 2.95406 1.21276 3.45573 0.957114C3.77927 0.792264 4.124 0.726666 4.4987 0.696046C4.86562 0.666068 5.31754 0.666749 5.86654 0.666749H10.1335C10.6825 0.666749 11.1344 0.666068 11.5013 0.696046C11.876 0.726666 12.2207 0.792264 12.5443 0.957114C13.0459 1.21276 13.454 1.62081 13.7096 2.12248C13.8745 2.44602 13.9401 2.79074 13.9707 3.16545C14.0007 3.53237 14 3.98429 14 4.53329V11.4669Z" fill="currentColor"/>
</svg>
