<svg width="16" height="16" viewBox="0 0 16 16" fill="none" xmlns="http://www.w3.org/2000/svg">
<path d="M10.8619 9.52864C11.1223 9.26829 11.5443 9.26829 11.8046 9.52864C12.065 9.78899 12.065 10.211 11.8046 10.4714L8.4713 13.8047C8.21095 14.065 7.78894 14.065 7.5286 13.8047L4.19526 10.4714C3.93491 10.211 3.93491 9.78899 4.19526 9.52864C4.45561 9.26829 4.87762 9.26829 5.13797 9.52864L7.99995 12.3906L10.8619 9.52864ZM7.57938 2.14974C7.84123 1.93617 8.22723 1.95123 8.4713 2.19531L11.8046 5.52864C12.065 5.78899 12.065 6.211 11.8046 6.47135C11.5443 6.7317 11.1223 6.7317 10.8619 6.47135L7.99995 3.60937L5.13797 6.47135C4.87762 6.7317 4.45561 6.7317 4.19526 6.47135C3.93491 6.211 3.93491 5.78899 4.19526 5.52864L7.5286 2.19531L7.57938 2.14974Z" fill="currentColor"/>
</svg>
