<svg width="16" height="16" viewBox="0 0 16 16" fill="none" xmlns="http://www.w3.org/2000/svg">
<path d="M13.3335 5.20003C13.3335 4.62911 13.3333 4.24094 13.3088 3.94092C13.2849 3.64864 13.2414 3.49896 13.1883 3.3947C13.0605 3.14386 12.8565 2.93984 12.6056 2.81201C12.5014 2.75889 12.3517 2.71545 12.0594 2.69157C11.7594 2.66706 11.3712 2.66683 10.8003 2.66683H5.20003C4.62911 2.66683 4.24094 2.66706 3.94092 2.69157C3.64864 2.71545 3.49896 2.75889 3.3947 2.81201C3.14386 2.93984 2.93984 3.14386 2.81201 3.3947C2.75889 3.49896 2.71545 3.64864 2.69157 3.94092C2.66706 4.24094 2.66683 4.62911 2.66683 5.20003V10.8003C2.66683 11.3712 2.66706 11.7594 2.69157 12.0594C2.71545 12.3517 2.75889 12.5014 2.81201 12.6056C2.93984 12.8565 3.14386 13.0605 3.3947 13.1883C3.49896 13.2414 3.64864 13.2849 3.94092 13.3088C4.24094 13.3333 4.62911 13.3335 5.20003 13.3335H10.8003C11.3712 13.3335 11.7594 13.3333 12.0594 13.3088C12.3517 13.2849 12.5014 13.2414 12.6056 13.1883C12.8565 13.0605 13.0605 12.8565 13.1883 12.6056C13.2414 12.5014 13.2849 12.3517 13.3088 12.0594C13.3333 11.7594 13.3335 11.3712 13.3335 10.8003V5.20003ZM4.19548 5.52881C4.45583 5.26846 4.87784 5.26846 5.13818 5.52881L7.13819 7.52881C7.39853 7.78916 7.39853 8.21117 7.13819 8.47152L5.13818 10.4715C4.87784 10.7319 4.45583 10.7319 4.19548 10.4715C3.93513 10.2112 3.93513 9.78916 4.19548 9.52881L5.72412 8.00016L4.19548 6.47152C3.93513 6.21117 3.93513 5.78916 4.19548 5.52881ZM11.3335 9.3335C11.7017 9.3335 12.0002 9.63197 12.0002 10.0002C12.0002 10.3684 11.7017 10.6668 11.3335 10.6668H8.66683C8.29864 10.6668 8.00016 10.3684 8.00016 10.0002C8.00016 9.63197 8.29864 9.3335 8.66683 9.3335H11.3335ZM14.6668 10.8003C14.6668 11.3493 14.6675 11.8012 14.6375 12.1681C14.6069 12.5428 14.5413 12.8876 14.3765 13.2111C14.1208 13.7128 13.7128 14.1208 13.2111 14.3765C12.8876 14.5413 12.5428 14.6069 12.1681 14.6375C11.8012 14.6675 11.3493 14.6668 10.8003 14.6668H5.20003C4.65104 14.6668 4.19912 14.6675 3.8322 14.6375C3.45749 14.6069 3.11276 14.5413 2.78923 14.3765C2.28756 14.1208 1.87951 13.7128 1.62386 13.2111C1.45901 12.8876 1.39341 12.5428 1.36279 12.1681C1.33282 11.8012 1.3335 11.3493 1.3335 10.8003V5.20003C1.3335 4.65104 1.33282 4.19912 1.36279 3.8322C1.39341 3.45749 1.45901 3.11276 1.62386 2.78923C1.87951 2.28756 2.28756 1.87951 2.78923 1.62386C3.11276 1.45901 3.45749 1.39341 3.8322 1.36279C4.19912 1.33282 4.65104 1.3335 5.20003 1.3335H10.8003C11.3493 1.3335 11.8012 1.33282 12.1681 1.36279C12.5428 1.39341 12.8876 1.45901 13.2111 1.62386C13.7128 1.87951 14.1208 2.28756 14.3765 2.78923C14.5413 3.11276 14.6069 3.45749 14.6375 3.8322C14.6675 4.19912 14.6668 4.65104 14.6668 5.20003V10.8003Z" fill="black" fill-opacity="0.48"/>
</svg>
