<svg width="16" height="16" viewBox="0 0 16 16" fill="none" xmlns="http://www.w3.org/2000/svg">
<path d="M13.3332 7.46643C13.3332 7.08211 13.3323 6.8337 13.3169 6.64482C13.3021 6.46392 13.277 6.39651 13.2603 6.36357C13.1963 6.2383 13.0945 6.13641 12.9692 6.07255C12.9363 6.05576 12.8691 6.03071 12.688 6.01591C12.4991 6.00048 12.2507 5.99964 11.8664 5.99964H4.1333C3.74893 5.99964 3.50058 6.00048 3.31169 6.01591C3.13062 6.03071 3.0634 6.05576 3.03044 6.07255C2.90514 6.13641 2.80333 6.2383 2.73942 6.36357C2.72263 6.39651 2.69758 6.46392 2.68278 6.64482C2.66735 6.8337 2.6665 7.08211 2.6665 7.46643V11.8668C2.6665 12.2509 2.66736 12.499 2.68278 12.6878C2.69758 12.8689 2.72262 12.9361 2.73942 12.969C2.80334 13.0945 2.905 13.1968 3.03044 13.2607C3.0634 13.2775 3.13063 13.3025 3.31169 13.3173C3.50058 13.3328 3.74893 13.333 4.1333 13.333H11.8664C12.2507 13.333 12.4991 13.3328 12.688 13.3173C12.869 13.3025 12.9363 13.2775 12.9692 13.2607C13.0947 13.1968 13.1963 13.0945 13.2603 12.969C13.277 12.9361 13.3021 12.8689 13.3169 12.6878C13.3323 12.499 13.3332 12.2509 13.3332 11.8668V7.46643ZM10.9998 8.6663C11.5521 8.6663 11.9997 9.11411 11.9998 9.6663C11.9998 10.2186 11.5521 10.6663 10.9998 10.6663C10.4476 10.6663 9.99984 10.2186 9.99984 9.6663C9.99995 9.11411 10.4476 8.6663 10.9998 8.6663ZM9.99984 3.00029C9.99984 2.71012 9.9993 2.5381 9.98812 2.41565C9.98752 2.40911 9.98548 2.40314 9.98486 2.39742C9.97963 2.39919 9.97385 2.40053 9.96794 2.40263C9.85207 2.44379 9.69559 2.51541 9.43213 2.63701L5.03499 4.6663H9.99984V3.00029ZM11.3332 4.6663H11.8664C12.2287 4.6663 12.5409 4.66624 12.7967 4.68714C13.0602 4.70868 13.3225 4.75591 13.5747 4.8844C13.951 5.07615 14.2567 5.38247 14.4484 5.75875C14.5769 6.01096 14.6248 6.27323 14.6463 6.53675C14.6672 6.79246 14.6665 7.10422 14.6665 7.46643V11.8668C14.6665 12.229 14.6672 12.5408 14.6463 12.7965C14.6248 13.0601 14.5769 13.3223 14.4484 13.5745C14.2567 13.9507 13.9509 14.2565 13.5747 14.4482C13.3225 14.5767 13.0602 14.6246 12.7967 14.6461C12.5409 14.667 12.2287 14.6663 11.8664 14.6663H4.1333C3.77093 14.6663 3.45874 14.667 3.20296 14.6461C2.93946 14.6246 2.67716 14.5767 2.42497 14.4482C2.0488 14.2565 1.74297 13.9507 1.55127 13.5745C1.42274 13.3223 1.37489 13.0601 1.35335 12.7965C1.33246 12.5408 1.33317 12.229 1.33317 11.8668V6.6982C1.33317 6.2539 1.32375 5.86741 1.4484 5.51656C1.55051 5.2293 1.71736 4.96924 1.93538 4.75615C2.20172 4.49586 2.55664 4.34211 2.96012 4.15589L8.87354 1.42672C9.11343 1.316 9.33459 1.21313 9.52132 1.14677C9.70826 1.08036 9.953 1.01475 10.2238 1.06083C10.5795 1.12145 10.8954 1.32374 11.0994 1.62138C11.2547 1.84791 11.2976 2.09702 11.3156 2.29456C11.3336 2.49195 11.3332 2.73596 11.3332 3.00029V4.6663Z" fill="black" fill-opacity="0.48"/>
</svg>
