<svg width="16" height="16" viewBox="0 0 16 16" fill="none" xmlns="http://www.w3.org/2000/svg">
<g clip-path="url(#clip0_375_9885)">
<path d="M12.6668 4.81167C12.6668 4.22421 12.6563 4.10691 12.6232 4.02C12.5847 3.91892 12.5221 3.8285 12.4409 3.75698C12.3712 3.69555 12.2648 3.64479 11.715 3.43862L8.1408 2.09813C8.06653 2.07027 8.02936 2.05627 8.00213 2.04735L8.00017 2.04669L7.99822 2.04735C7.97099 2.05627 7.93382 2.07027 7.85955 2.09813L4.28533 3.43862C3.73554 3.64479 3.62918 3.69555 3.55942 3.75698C3.47826 3.8285 3.41564 3.91892 3.37713 4.02C3.34406 4.10691 3.33351 4.22421 3.33351 4.81167V7.99982C3.33351 9.3877 4.09309 10.6433 5.09457 11.6867C6.08862 12.7222 7.24666 13.4704 7.87062 13.8345C7.90875 13.8567 7.93654 13.8724 7.96046 13.8859C7.97915 13.8964 7.99162 13.903 8.00017 13.9074C8.00872 13.903 8.02119 13.8964 8.03989 13.8859C8.0638 13.8724 8.0916 13.8567 8.12973 13.8345C8.75368 13.4704 9.91172 12.7222 10.9058 11.6867C11.9073 10.6433 12.6668 9.3877 12.6668 7.99982V4.81167ZM14.0002 7.99982C14.0002 9.88424 12.9752 11.4557 11.8674 12.6098C10.7523 13.7715 9.47638 14.5918 8.8016 14.9855C8.67504 15.0593 8.50689 15.1646 8.27947 15.2134C8.10664 15.2504 7.8937 15.2504 7.72088 15.2134C7.49345 15.1646 7.3253 15.0593 7.19874 14.9855C6.52396 14.5918 5.24807 13.7715 4.13298 12.6098C3.02514 11.4557 2.00017 9.88424 2.00017 7.99982V4.81167C2.00017 4.33328 1.98977 3.91727 2.13103 3.54604C2.24655 3.24251 2.43425 2.97171 2.67791 2.75698C2.97592 2.49435 3.36925 2.35791 3.81723 2.18992L7.39145 0.849429C7.50324 0.807508 7.65035 0.748726 7.80942 0.725731C7.90432 0.712017 8.00042 0.708445 8.09588 0.715314L8.19093 0.725731L8.30746 0.749168C8.42119 0.777409 8.52504 0.817981 8.6089 0.849429L12.1831 2.18992C12.6311 2.35791 13.0244 2.49435 13.3224 2.75698C13.5661 2.97171 13.7538 3.24251 13.8693 3.54604C14.0106 3.91727 14.0002 4.33328 14.0002 4.81167V7.99982Z" fill="#8F8F8F"/>
</g>
<defs>
<clipPath id="clip0_375_9885">
<rect width="16" height="16" fill="white"/>
</clipPath>
</defs>
</svg>
