<svg width="16" height="16" viewBox="0 0 16 16" fill="none" xmlns="http://www.w3.org/2000/svg">
<g clip-path="url(#clip0_375_9872)">
<mask id="mask0_375_9872" style="mask-type:luminance" maskUnits="userSpaceOnUse" x="0" y="0" width="16" height="16">
<path d="M16 0H0V16H16V0Z" fill="white"/>
</mask>
<g mask="url(#mask0_375_9872)">
<path d="M14.0003 12.6667C14.0003 11.9303 13.4034 11.3333 12.667 11.3333C11.9306 11.3333 11.3337 11.9303 11.3337 12.6667C11.3337 13.403 11.9306 14 12.667 14C13.4034 14 14.0003 13.403 14.0003 12.6667ZM7.95671 2.66668C8.95984 2.66668 9.75476 2.66582 10.3447 2.71421C10.6419 2.73858 10.9171 2.77754 11.1579 2.84572C11.3979 2.91371 11.645 3.02273 11.8473 3.21421C12.3472 3.68723 12.5688 4.38375 12.4339 5.05861C12.3793 5.33182 12.2404 5.56368 12.0837 5.75783C11.9265 5.95251 11.7243 6.14319 11.4958 6.33465C11.042 6.71486 10.3923 7.17331 9.57324 7.75262L6.86361 9.66929C6.02423 10.263 5.42987 10.6844 5.02832 11.0208C4.82936 11.1875 4.70084 11.3145 4.62142 11.4128C4.5416 11.5116 4.53809 11.5488 4.54069 11.5358C4.4957 11.7608 4.56936 11.9933 4.736 12.151C4.72638 12.1419 4.75066 12.1698 4.87272 12.2044C4.99429 12.2388 5.17254 12.2685 5.43132 12.2897C5.95345 12.3325 6.68237 12.3333 7.71061 12.3333H8.33366C8.70185 12.3333 9.00033 12.6318 9.00033 13C9.00033 13.3682 8.70185 13.6667 8.33366 13.6667H7.71061C6.70748 13.6667 5.91256 13.6675 5.32259 13.6191C5.02546 13.5948 4.75021 13.5558 4.50944 13.4876C4.26938 13.4196 4.02236 13.3106 3.81999 13.1191C3.3201 12.6461 3.09852 11.9496 3.2334 11.2747C3.28804 11.0015 3.42693 10.7697 3.58366 10.5755C3.74084 10.3808 3.94306 10.1902 4.17155 9.99872C4.62529 9.61851 5.27505 9.16006 6.09408 8.58075L8.80371 6.66408C9.6431 6.07037 10.2375 5.64898 10.639 5.31252C10.838 5.1458 10.9665 5.0189 11.0459 4.92059C11.1257 4.82172 11.1292 4.78455 11.1266 4.79754C11.1716 4.57257 11.098 4.34 10.9313 4.18231C10.9409 4.19141 10.9167 4.16352 10.7946 4.12892C10.673 4.0945 10.4948 4.06487 10.236 4.04364C9.71387 4.00081 8.98495 4.00002 7.95671 4.00002H7.66699C7.2988 4.00002 7.00033 3.70154 7.00033 3.33335C7.00033 2.96516 7.2988 2.66668 7.66699 2.66668H7.95671ZM4.66699 3.33335C4.66699 2.59697 4.07004 2.00002 3.33366 2.00002C2.59728 2.00002 2.00033 2.59697 2.00033 3.33335C2.00033 4.06973 2.59728 4.66668 3.33366 4.66668C4.07004 4.66668 4.66699 4.06973 4.66699 3.33335ZM15.3337 12.6667C15.3337 14.1394 14.1398 15.3333 12.667 15.3333C11.1942 15.3333 10.0003 14.1394 10.0003 12.6667C10.0003 11.1939 11.1942 10 12.667 10C14.1398 10 15.3337 11.1939 15.3337 12.6667ZM6.00033 3.33335C6.00033 4.80611 4.80642 6.00002 3.33366 6.00002C1.8609 6.00002 0.666992 4.80611 0.666992 3.33335C0.666992 1.86059 1.8609 0.666687 3.33366 0.666687C4.80642 0.666687 6.00033 1.86059 6.00033 3.33335Z" fill="#8F8F8F"/>
</g>
</g>
<defs>
<clipPath id="clip0_375_9872">
<rect width="16" height="16" fill="white"/>
</clipPath>
</defs>
</svg>
