<svg width="16" height="16" viewBox="0 0 16 16" fill="none" xmlns="http://www.w3.org/2000/svg">
<path d="M4.86198 8.19543C5.12233 7.93508 5.54434 7.93508 5.80469 8.19543C6.06504 8.45577 6.06504 8.87778 5.80469 9.13813L4.27604 10.6668H13.3333C13.7015 10.6668 14 10.9653 14 11.3334C14 11.7016 13.7015 12.0001 13.3333 12.0001H4.27604L5.80469 13.5288C6.06504 13.7891 6.06504 14.2111 5.80469 14.4715C5.54434 14.7318 5.12233 14.7318 4.86198 14.4715L2.19531 11.8048C1.93496 11.5445 1.93496 11.1224 2.19531 10.8621L4.86198 8.19543ZM10.1953 1.52876C10.4557 1.26841 10.8777 1.26841 11.138 1.52876L13.8047 4.19543C14.065 4.45577 14.065 4.87778 13.8047 5.13813L11.138 7.8048C10.8777 8.06515 10.4557 8.06515 10.1953 7.8048C9.93496 7.54445 9.93496 7.12244 10.1953 6.86209L11.724 5.33345H2.66667C2.29848 5.33345 2 5.03497 2 4.66678C2 4.29859 2.29848 4.00011 2.66667 4.00011H11.724L10.1953 2.47147C9.93496 2.21112 9.93496 1.78911 10.1953 1.52876Z" fill="currentColor"/>
</svg>
