<svg width="16" height="16" viewBox="0 0 16 16" fill="none" xmlns="http://www.w3.org/2000/svg">
<path d="M7.33317 4.53309C7.33317 3.56559 7.31316 3.32623 7.08838 3.00835C7.04358 2.94499 6.89701 2.80913 6.67041 2.67176C6.44388 2.53444 6.25578 2.46735 6.17887 2.45691C5.92138 2.42203 5.79627 2.43671 5.70622 2.46017C5.5948 2.48923 5.48438 2.5431 5.229 2.67632C3.30854 3.67818 1.99984 5.68682 1.99984 7.99988C1.9999 11.3135 4.68617 13.9999 7.99984 13.9999C11.3135 13.9999 13.9998 11.3135 13.9998 7.99988C13.9998 5.77988 12.7943 3.8404 10.9992 2.80197C10.6806 2.61756 10.572 2.20981 10.7563 1.89116C10.9407 1.57253 11.3485 1.46333 11.6672 1.64767C13.8573 2.91463 15.3332 5.28468 15.3332 7.99988C15.3331 12.0499 12.0499 15.3332 7.99984 15.3332C3.94979 15.3332 0.66657 12.0499 0.666504 7.99988C0.666504 5.17065 2.26887 2.71656 4.61247 1.49402C4.83551 1.37767 5.08437 1.24419 5.36963 1.1698C5.67621 1.08988 5.98574 1.08488 6.35791 1.1353C6.69955 1.18159 7.07178 1.35596 7.36182 1.53178C7.65171 1.70755 7.97789 1.95684 8.17692 2.23816C8.68617 2.95834 8.6665 3.64632 8.6665 4.53309V9.05717L10.1952 7.52853C10.4555 7.26818 10.8775 7.26818 11.1379 7.52853C11.3981 7.78888 11.3982 8.21091 11.1379 8.47124L8.47119 11.1379C8.21086 11.3982 7.78882 11.3982 7.52848 11.1379L4.86182 8.47124C4.60149 8.21091 4.60153 7.78888 4.86182 7.52853C5.12217 7.26818 5.54418 7.26818 5.80452 7.52853L7.33317 9.05717V4.53309Z" fill="currentColor"/>
</svg>
