<svg width="16" height="16" viewBox="0 0 16 16" fill="none" xmlns="http://www.w3.org/2000/svg">
<g clip-path="url(#clip0_375_9894)">
<path d="M7.33366 4.53309C7.33366 3.56559 7.31365 3.32623 7.08887 3.00835C7.04407 2.94499 6.8975 2.80913 6.6709 2.67176C6.44437 2.53444 6.25627 2.46735 6.17936 2.45691C5.92187 2.42203 5.79676 2.43671 5.70671 2.46017C5.59529 2.48923 5.48487 2.5431 5.22949 2.67632C3.30903 3.67818 2.00033 5.68682 2.00033 7.99988C2.00039 11.3135 4.68666 13.9999 8.00033 13.9999C11.314 13.9999 14.0003 11.3135 14.0003 7.99988C14.0003 5.77988 12.7948 3.8404 10.9997 2.80197C10.6811 2.61756 10.5725 2.20981 10.7568 1.89116C10.9412 1.57253 11.349 1.46333 11.6677 1.64767C13.8578 2.91463 15.3337 5.28468 15.3337 7.99988C15.3336 12.0499 12.0504 15.3332 8.00033 15.3332C3.95028 15.3332 0.667058 12.0499 0.666992 7.99988C0.666992 5.17065 2.26936 2.71656 4.61296 1.49402C4.836 1.37767 5.08486 1.24419 5.37012 1.1698C5.6767 1.08988 5.98623 1.08488 6.3584 1.1353C6.70004 1.18159 7.07227 1.35596 7.36231 1.53178C7.6522 1.70755 7.97838 1.95684 8.17741 2.23816C8.68666 2.95834 8.66699 3.64632 8.66699 4.53309V9.05717L10.1957 7.52853C10.456 7.26818 10.878 7.26818 11.1384 7.52853C11.3986 7.78888 11.3987 8.21091 11.1384 8.47124L8.47168 11.1379C8.21135 11.3982 7.78931 11.3982 7.52897 11.1379L4.86231 8.47124C4.60198 8.21091 4.60202 7.78888 4.86231 7.52853C5.12266 7.26818 5.54467 7.26818 5.80501 7.52853L7.33366 9.05717V4.53309Z" fill="#8F8F8F"/>
</g>
<defs>
<clipPath id="clip0_375_9894">
<rect width="16" height="16" fill="white"/>
</clipPath>
</defs>
</svg>
