<svg width="16" height="16" viewBox="0 0 16 16" fill="none" xmlns="http://www.w3.org/2000/svg">
<g clip-path="url(#clip0_243_14778)">
<path d="M13.9998 12.6667C13.9998 11.9303 13.4029 11.3333 12.6665 11.3333C11.9301 11.3333 11.3332 11.9303 11.3332 12.6667C11.3332 13.403 11.9301 14 12.6665 14C13.4029 14 13.9998 13.403 13.9998 12.6667ZM7.95622 2.66666C8.95935 2.66666 9.75427 2.6658 10.3442 2.71419C10.6414 2.73856 10.9166 2.77752 11.1574 2.8457C11.3974 2.91369 11.6445 3.02271 11.8468 3.21419C12.3467 3.68721 12.5683 4.38373 12.4334 5.05859C12.3788 5.3318 12.2399 5.56366 12.0832 5.75781C11.926 5.95249 11.7238 6.14317 11.4953 6.33463C11.0415 6.71484 10.3918 7.17329 9.57275 7.7526L6.86312 9.66927C6.02374 10.263 5.42938 10.6844 5.02783 11.0208C4.82887 11.1875 4.70035 11.3145 4.62093 11.4128C4.54111 11.5116 4.5376 11.5488 4.5402 11.5358C4.49521 11.7608 4.56887 11.9933 4.73551 12.151C4.72589 12.1419 4.75017 12.1698 4.87223 12.2044C4.9938 12.2388 5.17205 12.2685 5.43083 12.2897C5.95296 12.3325 6.68188 12.3333 7.71012 12.3333H8.33317C8.70136 12.3333 8.99984 12.6318 8.99984 13C8.99984 13.3682 8.70136 13.6667 8.33317 13.6667H7.71012C6.70699 13.6667 5.91207 13.6675 5.3221 13.6191C5.02497 13.5948 4.74972 13.5558 4.50895 13.4876C4.26889 13.4196 4.02187 13.3106 3.8195 13.1191C3.31961 12.6461 3.09803 11.9496 3.23291 11.2747C3.28755 11.0015 3.42644 10.7697 3.58317 10.5755C3.74035 10.3808 3.94257 10.1902 4.17106 9.9987C4.6248 9.61849 5.27456 9.16004 6.09359 8.58073L8.80322 6.66406C9.64261 6.07035 10.237 5.64896 10.6385 5.3125C10.8375 5.14578 10.966 5.01888 11.0454 4.92057C11.1252 4.8217 11.1287 4.78453 11.1261 4.79752C11.1711 4.57255 11.0975 4.33998 10.9308 4.18229C10.9404 4.19139 10.9162 4.1635 10.7941 4.1289C10.6725 4.09448 10.4943 4.06485 10.2355 4.04362C9.71338 4.00079 8.98446 4 7.95622 4H7.6665C7.29831 4 6.99984 3.70152 6.99984 3.33333C6.99984 2.96514 7.29831 2.66666 7.6665 2.66666H7.95622ZM4.6665 3.33333C4.6665 2.59695 4.06955 2 3.33317 2C2.59679 2 1.99984 2.59695 1.99984 3.33333C1.99984 4.06971 2.59679 4.66666 3.33317 4.66666C4.06955 4.66666 4.6665 4.06971 4.6665 3.33333ZM15.3332 12.6667C15.3332 14.1394 14.1393 15.3333 12.6665 15.3333C11.1937 15.3333 9.99984 14.1394 9.99984 12.6667C9.99984 11.1939 11.1937 10 12.6665 10C14.1393 10 15.3332 11.1939 15.3332 12.6667ZM5.99984 3.33333C5.99984 4.80609 4.80593 6 3.33317 6C1.86041 6 0.666504 4.80609 0.666504 3.33333C0.666504 1.86057 1.86041 0.666664 3.33317 0.666664C4.80593 0.666664 5.99984 1.86057 5.99984 3.33333Z" fill="black" fill-opacity="0.48"/>
</g>
<defs>
<clipPath id="clip0_243_14778">
<rect width="16" height="16" fill="white"/>
</clipPath>
</defs>
</svg>
