<svg width="16" height="16" viewBox="0 0 16 16" fill="none" xmlns="http://www.w3.org/2000/svg">
<g clip-path="url(#clip0_375_9863)">
<path d="M10.1292 13.0488C10.0696 13.0744 10.0186 13.1171 9.98275 13.1712C9.94685 13.2254 9.92767 13.2891 9.92741 13.3541V13.4544C9.92741 13.9527 9.72962 14.4308 9.37728 14.7832C9.02495 15.1354 8.54674 15.3333 8.0485 15.3333C7.55038 15.3332 7.07264 15.1354 6.72038 14.7832C6.36804 14.4308 6.17025 13.9527 6.17025 13.4544V13.4153L6.16504 13.3658C6.15646 13.3169 6.13756 13.2699 6.1084 13.2291C6.06952 13.1748 6.01484 13.1337 5.95215 13.1106L6.18197 12.485L6.18001 12.4889L5.95215 13.1106L5.91309 13.095L5.86621 13.0781C5.81847 13.065 5.76819 13.0627 5.71908 13.0716C5.65354 13.0835 5.59286 13.1148 5.54525 13.1614L5.514 13.1927C5.33959 13.3672 5.13253 13.5057 4.90462 13.6002C4.67657 13.6948 4.43209 13.7434 4.18522 13.7434C3.93837 13.7434 3.69387 13.6947 3.46582 13.6002C3.23774 13.5057 3.03028 13.3667 2.85579 13.192C2.68169 13.0178 2.54325 12.8108 2.44889 12.5833C2.35438 12.3553 2.3057 12.1107 2.30566 11.8639C2.30566 11.617 2.35434 11.3719 2.44889 11.1438C2.54343 10.9159 2.68188 10.7089 2.85645 10.5345L3.7985 11.4778C3.74788 11.5284 3.70808 11.5888 3.68066 11.6549C3.65323 11.7211 3.639 11.7922 3.639 11.8639C3.63904 11.9354 3.65328 12.0061 3.68066 12.0722C3.70807 12.1383 3.74789 12.1987 3.7985 12.2493L3.79915 12.25C3.8498 12.3007 3.91004 12.341 3.97624 12.3684C4.04245 12.3959 4.11354 12.4101 4.18522 12.4101C4.25689 12.4101 4.328 12.3959 4.39421 12.3684C4.46037 12.341 4.52066 12.3006 4.57129 12.25L4.61296 12.2083C4.85096 11.9755 5.15321 11.8192 5.48079 11.7597C5.80846 11.7003 6.14683 11.7405 6.4515 11.875C6.74886 11.9929 7.00593 12.1931 7.19238 12.4537C7.38688 12.7257 7.49505 13.0498 7.50293 13.3841C7.50305 13.3892 7.50358 13.3946 7.50358 13.3997V13.4544C7.50358 13.5991 7.56079 13.7382 7.66309 13.8405C7.7653 13.9426 7.904 13.9999 8.0485 14C8.19312 14 8.33229 13.9427 8.43457 13.8405C8.53686 13.7382 8.59408 13.5991 8.59408 13.4544V13.3489C8.59537 13.0239 8.69202 12.7065 8.87142 12.4355C9.04962 12.1664 9.30195 11.9545 9.59798 11.8261L9.71322 11.7806C9.98657 11.6835 10.2812 11.6595 10.568 11.7115C10.8957 11.771 11.1985 11.9266 11.4365 12.1595L11.4417 12.1647L10.9697 12.636L10.96 12.6464L11.4417 12.1647L11.4775 12.2011L10.5348 13.1438L10.4984 13.108C10.4517 13.0645 10.3933 13.0348 10.3304 13.0234C10.2649 13.0115 10.1973 13.0194 10.1364 13.0462L9.85579 12.4101L9.86686 12.4362L10.1364 13.0462L10.1299 13.0494L10.1292 13.0488ZM12.4105 11.8151C12.4105 11.7434 12.3963 11.6723 12.3688 11.6061C12.3414 11.5399 12.301 11.4796 12.2503 11.429L12.2087 11.3873C11.9758 11.1493 11.8195 10.8471 11.7601 10.5195C11.7081 10.2328 11.7322 9.93793 11.8291 9.66467L11.8753 9.54879C12.0037 9.25294 12.2151 9.00034 12.484 8.82223C12.755 8.64284 13.0725 8.54687 13.3975 8.54553H13.4548C13.5994 8.54553 13.7385 8.48767 13.8408 8.38538C13.9429 8.28311 14.0003 8.1445 14.0003 7.99996C14.0003 7.85542 13.9429 7.71681 13.8408 7.61454C13.7385 7.51225 13.5994 7.45439 13.4548 7.45439H13.3493C13.0244 7.45309 12.7068 7.35703 12.4359 7.17769C12.1649 6.99826 11.9519 6.7433 11.8239 6.44462C11.801 6.39112 11.786 6.33464 11.7777 6.2773C11.6835 6.00669 11.6605 5.71568 11.7119 5.43225C11.7713 5.10458 11.927 4.80182 12.1598 4.56376L12.165 4.55855L12.6188 5.01298L12.637 5.03056L12.165 4.55855L12.2015 4.52275L13.1442 5.46545L13.1084 5.50191C13.0647 5.54863 13.0352 5.60683 13.0238 5.66988C13.0119 5.73534 13.0197 5.80301 13.0465 5.86389C13.063 5.9012 13.075 5.94031 13.0843 5.97978C13.108 6.01327 13.137 6.04282 13.1715 6.06571C13.2257 6.10161 13.2895 6.12079 13.3545 6.12105H13.4548C13.953 6.12105 14.4312 6.31888 14.7835 6.67118C15.1359 7.02352 15.3337 7.50167 15.3337 7.99996C15.3337 8.49825 15.1359 8.97639 14.7835 9.32874C14.4312 9.68104 13.953 9.87887 13.4548 9.87887H13.4027L13.3545 9.88277C13.3068 9.89 13.261 9.90734 13.2204 9.9342C13.1662 9.97008 13.1236 10.021 13.098 10.0807L12.4854 9.81767L12.5101 9.82874L13.098 10.0807L13.0954 10.0872L13.0785 10.1341C13.0654 10.1818 13.0631 10.2321 13.0719 10.2812C13.0838 10.3467 13.1152 10.4074 13.1618 10.455L13.1924 10.4856C13.3671 10.6601 13.506 10.8676 13.6006 11.0957C13.6951 11.3237 13.7438 11.5682 13.7438 11.8151C13.7438 12.0619 13.6951 12.3064 13.6006 12.5345C13.5061 12.7624 13.3669 12.9688 13.1924 13.1432L13.193 13.1438C13.0186 13.3184 12.8116 13.4569 12.5837 13.5514C12.3557 13.6459 12.1111 13.6946 11.8643 13.6946C11.6174 13.6946 11.3723 13.6459 11.1442 13.5514C10.9163 13.4569 10.7092 13.3184 10.5348 13.1438L11.4782 12.2018C11.5288 12.2524 11.5891 12.2922 11.6553 12.3196C11.7215 12.3471 11.7926 12.3613 11.8643 12.3613C11.9358 12.3612 12.0065 12.347 12.0726 12.3196C12.1387 12.2922 12.1991 12.2524 12.2497 12.2018L12.2503 12.2011L12.2861 12.1614C12.3202 12.12 12.3482 12.0738 12.3688 12.024C12.3963 11.9578 12.4105 11.8867 12.4105 11.8151ZM0.666992 8.04814C0.667074 7.55001 0.864924 7.07227 1.21712 6.72001C1.56946 6.36767 2.04761 6.16988 2.5459 6.16988H2.58496C2.65175 6.16827 2.71682 6.1469 2.77116 6.10803C2.82549 6.06916 2.86656 6.01447 2.88965 5.95178C2.89447 5.93867 2.89964 5.9255 2.90527 5.91272L2.9222 5.86584C2.93524 5.8181 2.93759 5.76782 2.92871 5.71871C2.91683 5.65317 2.88544 5.59249 2.83887 5.54488L2.80762 5.51363C2.63327 5.33929 2.49449 5.13203 2.40007 4.90426C2.30554 4.6762 2.25684 4.43172 2.25684 4.18486C2.25684 3.938 2.30555 3.6935 2.40007 3.46545C2.49461 3.23737 2.63359 3.02992 2.80827 2.85543C2.98253 2.68117 3.18935 2.54294 3.41699 2.44853C3.64498 2.35402 3.88959 2.30534 4.13639 2.3053C4.3833 2.3053 4.62836 2.35398 4.85645 2.44853C5.08437 2.54306 5.29143 2.68151 5.46582 2.85608L4.52246 3.79814C4.47184 3.74751 4.41151 3.70771 4.34538 3.6803C4.27917 3.65286 4.20806 3.63863 4.13639 3.63863C4.06485 3.63867 3.99416 3.65291 3.92806 3.6803C3.86194 3.70771 3.80159 3.74752 3.75098 3.79814L3.75033 3.79879L3.71452 3.8385C3.68045 3.87994 3.65246 3.92614 3.63184 3.97587C3.60439 4.04209 3.59017 4.11317 3.59017 4.18486C3.59018 4.25652 3.60439 4.32764 3.63184 4.39384C3.65246 4.44356 3.68045 4.48978 3.71452 4.53121L3.75033 4.57092L3.79199 4.61259C4.0248 4.8506 4.18112 5.15284 4.24056 5.48043C4.29997 5.8081 4.25979 6.14647 4.12533 6.45113L4.12467 6.45048C4.00677 6.74775 3.80713 7.00561 3.54655 7.19202C3.27462 7.38651 2.95044 7.49469 2.61621 7.50256L2.60059 6.82743V6.83655L2.61621 7.50256C2.6111 7.50268 2.6057 7.50321 2.60059 7.50321H2.5459C2.40124 7.50321 2.26212 7.56043 2.15983 7.66272C2.05768 7.76493 2.00041 7.90364 2.00033 8.04814C2.00033 8.19276 2.0576 8.33192 2.15983 8.4342C2.26212 8.5365 2.40124 8.59371 2.5459 8.59371H2.65137C2.97634 8.59501 3.29382 8.69166 3.56478 8.87105C3.83379 9.04921 4.04517 9.30169 4.1735 9.59762C4.30787 9.90221 4.34813 10.2401 4.28874 10.5677C4.22932 10.8953 4.07369 11.1981 3.84082 11.4362L3.83561 11.4414L3.37207 10.9772L3.34863 10.9544L3.83561 11.4414L3.79915 11.4772L2.85645 10.5345L2.89225 10.498C2.93598 10.4513 2.96541 10.3931 2.97689 10.33C2.98876 10.2646 2.98092 10.1969 2.9541 10.136L3.56413 9.8665L3.53874 9.87691L2.9541 10.136L2.95085 10.1295C2.92522 10.07 2.88315 10.0182 2.8291 9.98238C2.7884 9.95543 2.74222 9.93814 2.69434 9.93095L2.64616 9.92704H2.5459C2.04761 9.92704 1.56946 9.72925 1.21712 9.37691C0.864841 9.02458 0.666992 8.54638 0.666992 8.04814ZM9.33366 7.99996C9.33366 7.26358 8.73671 6.66663 8.00033 6.66663C7.26395 6.66663 6.66699 7.26358 6.66699 7.99996C6.66699 8.73634 7.26395 9.33329 8.00033 9.33329C8.73671 9.33329 9.33366 8.73634 9.33366 7.99996ZM12.3617 4.13603C12.3616 4.06448 12.3474 3.99379 12.32 3.92769C12.2926 3.86157 12.2528 3.80122 12.2021 3.75061L12.2015 3.74996L12.1618 3.71415C12.1203 3.68008 12.0741 3.65209 12.0244 3.63147C11.9582 3.60402 11.8871 3.5898 11.8154 3.5898C11.7438 3.58981 11.6726 3.60403 11.6064 3.63147C11.5403 3.65892 11.48 3.69928 11.4294 3.74996L11.3877 3.79163C11.1497 4.02444 10.8474 4.18075 10.5199 4.24019C10.1922 4.29961 9.85382 4.25942 9.54915 4.12496C9.25341 3.99661 9.00066 3.78512 8.82259 3.51624C8.64321 3.24532 8.54723 2.92774 8.5459 2.60282V2.54553C8.5459 2.40087 8.48804 2.26176 8.38574 2.15946C8.28348 2.05734 8.14486 1.99996 8.00033 1.99996C7.85579 1.99996 7.71718 2.05734 7.61491 2.15946C7.51262 2.26176 7.45475 2.40087 7.45475 2.54553V2.651C7.45346 2.97591 7.35739 3.29348 7.17806 3.56441C6.99862 3.83536 6.74367 4.04834 6.44499 4.17639L6.18197 3.56246V3.56376L6.44499 4.17639C6.39151 4.19931 6.33497 4.21365 6.27767 4.22196C6.007 4.31621 5.71612 4.33977 5.43262 4.28837C5.14587 4.23638 4.87843 4.11054 4.65658 3.92379L4.56413 3.84045L4.55892 3.83525L5.01595 3.37821L5.04525 3.34827L4.55892 3.83525L4.52311 3.79879L5.46582 2.85608L5.50098 2.89058C5.54791 2.93501 5.60659 2.96494 5.67025 2.97652C5.73571 2.98839 5.80338 2.98055 5.86426 2.95374C5.90161 2.93725 5.94063 2.92468 5.98014 2.91532C6.01351 2.89168 6.04326 2.86315 6.06608 2.82874C6.10149 2.77526 6.12066 2.71249 6.12142 2.6484V2.54553C6.12142 2.04727 6.31925 1.56909 6.67155 1.21676C7.02389 0.864415 7.50204 0.666626 8.00033 0.666626C8.49861 0.666626 8.97676 0.864415 9.3291 1.21676C9.68141 1.56909 9.87923 2.04727 9.87923 2.54553V2.59762L9.88314 2.64579C9.89036 2.69353 9.90771 2.73932 9.93457 2.77991C9.97045 2.83408 10.0213 2.87669 10.0811 2.9023L10.0876 2.90491C10.1484 2.93177 10.2161 2.94018 10.2816 2.92834C10.3471 2.91646 10.4078 2.88507 10.4554 2.8385L10.4867 2.80725C10.6611 2.63275 10.8681 2.49418 11.096 2.3997C11.3241 2.30517 11.5686 2.25648 11.8154 2.25647C12.0623 2.25647 12.3068 2.30519 12.5348 2.3997C12.7627 2.49417 12.9698 2.63277 13.1442 2.80725L13.2686 2.94397C13.3855 3.08643 13.4809 3.24574 13.5518 3.41663C13.6463 3.64462 13.6949 3.88923 13.695 4.13603C13.695 4.38293 13.6463 4.628 13.5518 4.85608C13.4572 5.084 13.3188 5.29107 13.1442 5.46545L12.2021 4.52209C12.2528 4.47147 12.2926 4.41115 12.32 4.34501C12.3474 4.27881 12.3617 4.20769 12.3617 4.13603ZM10.667 7.99996C10.667 9.47272 9.47309 10.6666 8.00033 10.6666C6.52757 10.6666 5.33366 9.47272 5.33366 7.99996C5.33366 6.5272 6.52757 5.33329 8.00033 5.33329C9.47309 5.33329 10.667 6.5272 10.667 7.99996Z" fill="#8F8F8F"/>
</g>
<defs>
<clipPath id="clip0_375_9863">
<rect width="16" height="16" fill="white"/>
</clipPath>
</defs>
</svg>
