<svg width="16" height="16" viewBox="0 0 16 16" fill="none" xmlns="http://www.w3.org/2000/svg">
<path d="M3.99962 2.66667C3.99962 2.29848 4.2981 2 4.66629 2C5.03448 2 5.33296 2.29848 5.33296 2.66667V11.724L6.8616 10.1953C7.12195 9.93496 7.54396 9.93496 7.80431 10.1953C8.06466 10.4557 8.06466 10.8777 7.80431 11.138L5.13765 13.8047C4.8773 14.065 4.45529 14.065 4.19494 13.8047L1.52827 11.138C1.26792 10.8777 1.26792 10.4557 1.52827 10.1953C1.78862 9.93496 2.21063 9.93496 2.47098 10.1953L3.99962 11.724V2.66667ZM10.6663 13.3333V4.27604L9.13765 5.80469C8.8773 6.06504 8.45529 6.06504 8.19494 5.80469C7.93459 5.54434 7.93459 5.12233 8.19494 4.86198L10.8616 2.19531L10.9124 2.14974C11.1742 1.93617 11.5602 1.95124 11.8043 2.19531L14.471 4.86198C14.7313 5.12233 14.7313 5.54434 14.471 5.80469C14.2106 6.06504 13.7886 6.06504 13.5283 5.80469L11.9996 4.27604V13.3333C11.9996 13.7015 11.7011 14 11.333 14C10.9648 14 10.6663 13.7015 10.6663 13.3333Z" fill="#8F8F8F"/>
</svg>
