<svg width="180" height="180" viewBox="0 0 180 180" fill="none" xmlns="http://www.w3.org/2000/svg">
<path fill-rule="evenodd" clip-rule="evenodd" d="M90 0C127.978 0 146.969 0.00119591 160.158 9.87103C163.94 12.7019 167.298 16.0597 170.129 19.8421C179.999 33.0307 180 52.0216 180 90C180 127.978 179.999 146.969 170.129 160.158C167.298 163.94 163.94 167.298 160.158 170.129C146.969 179.999 127.979 180 90 180C52.0214 180 33.0307 179.999 19.8421 170.129C16.0597 167.298 12.7019 163.94 9.87103 160.158C0.0012188 146.969 0 127.978 0 90C3.77671e-09 52.0216 0.00114346 33.0307 9.87103 19.8421C12.7019 16.0597 16.0597 12.7019 19.8421 9.87103C33.0307 0.00119591 52.0215 0 90 0ZM67.0969 36.5625C67.0983 46.7406 67.0969 56.9188 67.0969 67.0969H36.5625C36.5641 92.5438 36.5625 117.991 36.5625 143.437H112.903C112.903 133.259 112.904 123.081 112.903 112.903H143.438C143.425 87.4562 143.434 62.0094 143.438 36.5625H67.0969Z" fill="black"/>
<path d="M112.903 67.0969H67.0969V112.903H112.903V67.0969Z" fill="black"/>
<path d="M67.0969 67.0969H36.5625C36.5641 92.5438 36.5625 117.991 36.5625 143.437H112.903C112.903 133.259 112.904 123.081 112.903 112.903H67.0969V67.0969Z" fill="white"/>
<path d="M112.903 112.903H143.438C143.425 87.4562 143.434 62.0094 143.438 36.5625H67.0969C67.0983 46.7406 67.0969 56.9188 67.0969 67.0969H112.903V112.903Z" fill="white"/>
</svg>
