<svg width="24" height="24" viewBox="0 0 24 24" fill="none" xmlns="http://www.w3.org/2000/svg">
<path d="M10.862 8.19526C11.1223 7.93491 11.5443 7.93491 11.8047 8.19526C12.065 8.45561 12.065 8.87762 11.8047 9.13797L8.9427 11.9999L11.8047 14.8619C12.065 15.1223 12.065 15.5443 11.8047 15.8046C11.5443 16.065 11.1223 16.065 10.862 15.8046L7.52864 12.4713C7.26829 12.211 7.26829 11.7889 7.52864 11.5286L10.862 8.19526ZM15.5286 8.19526C15.789 7.93491 16.211 7.93491 16.4713 8.19526C16.7317 8.45561 16.7317 8.87762 16.4713 9.13797L13.6094 11.9999L16.4713 14.8619C16.7317 15.1223 16.7317 15.5443 16.4713 15.8046C16.211 16.065 15.789 16.065 15.5286 15.8046L12.1953 12.4713C11.935 12.211 11.935 11.7889 12.1953 11.5286L15.5286 8.19526Z" fill="black" fill-opacity="0.48"/>
</svg>
