<svg width="24" height="24" viewBox="0 0 24 24" fill="none" xmlns="http://www.w3.org/2000/svg">
<path d="M13.1379 8.19526C12.8776 7.93491 12.4555 7.93491 12.1952 8.19526C11.9349 8.45561 11.9349 8.87762 12.1952 9.13797L15.0572 11.9999L12.1952 14.8619C11.9349 15.1223 11.9349 15.5443 12.1952 15.8046C12.4555 16.065 12.8776 16.065 13.1379 15.8046L16.4712 12.4713C16.7316 12.211 16.7316 11.7889 16.4712 11.5286L13.1379 8.19526ZM8.47124 8.19526C8.21089 7.93491 7.78888 7.93491 7.52853 8.19526C7.26818 8.45561 7.26818 8.87762 7.52853 9.13797L10.3905 11.9999L7.52853 14.8619C7.26818 15.1223 7.26818 15.5443 7.52853 15.8046C7.78888 16.065 8.21089 16.065 8.47124 15.8046L11.8046 12.4713C12.0649 12.211 12.0649 11.7889 11.8046 11.5286L8.47124 8.19526Z" fill="black" fill-opacity="0.48"/>
</svg>
