<svg width="16" height="16" viewBox="0 0 16 16" fill="none" xmlns="http://www.w3.org/2000/svg">
<path d="M4.00016 4.66666C4.00016 4.29847 4.29864 3.99999 4.66683 3.99999H6.66683C7.03502 3.99999 7.3335 4.29847 7.3335 4.66666V11.3333C7.3335 11.7015 7.03502 12 6.66683 12H4.66683C4.29864 12 4.00016 11.7015 4.00016 11.3333V4.66666Z" fill="black"/>
<path d="M9.3335 3.99999C8.96531 3.99999 8.66683 4.29847 8.66683 4.66666V7.99999C8.66683 8.36818 8.96531 8.66666 9.3335 8.66666H11.3335C11.7017 8.66666 12.0002 8.36818 12.0002 7.99999V4.66666C12.0002 4.29847 11.7017 3.99999 11.3335 3.99999H9.3335Z" fill="black"/>
<path fill-rule="evenodd" clip-rule="evenodd" d="M3.3335 1.33333C2.22893 1.33333 1.3335 2.22876 1.3335 3.33333V12.6667C1.3335 13.7712 2.22893 14.6667 3.3335 14.6667H12.6668C13.7714 14.6667 14.6668 13.7712 14.6668 12.6667V3.33333C14.6668 2.22876 13.7714 1.33333 12.6668 1.33333H3.3335ZM12.6668 2.66666H3.3335C2.96531 2.66666 2.66683 2.96514 2.66683 3.33333V12.6667C2.66683 13.0349 2.96531 13.3333 3.3335 13.3333H12.6668C13.035 13.3333 13.3335 13.0349 13.3335 12.6667V3.33333C13.3335 2.96514 13.035 2.66666 12.6668 2.66666Z" fill="black"/>
</svg>
