<svg width="16" height="16" viewBox="0 0 16 16" fill="none" xmlns="http://www.w3.org/2000/svg">
<path d="M13.3335 8.66659H8.66683V13.3333H10.8003C11.3712 13.3333 11.7594 13.333 12.0594 13.3085C12.3517 13.2846 12.5014 13.2412 12.6056 13.1881C12.8565 13.0602 13.0605 12.8562 13.1883 12.6054C13.2414 12.5011 13.2849 12.3514 13.3088 12.0592C13.3333 11.7591 13.3335 11.371 13.3335 10.8001V8.66659ZM13.3335 5.19979C13.3335 4.62886 13.3333 4.2407 13.3088 3.94068C13.2849 3.6484 13.2414 3.49872 13.1883 3.39445C13.0605 3.14362 12.8565 2.93959 12.6056 2.81177C12.5014 2.75864 12.3517 2.71521 12.0594 2.69133C11.7594 2.66682 11.3712 2.66659 10.8003 2.66659H8.66683V7.33325H13.3335V5.19979ZM2.66683 10.8001C2.66683 11.371 2.66706 11.7591 2.69157 12.0592C2.71545 12.3514 2.75889 12.5011 2.81201 12.6054C2.93984 12.8562 3.14386 13.0602 3.3947 13.1881C3.49896 13.2412 3.64864 13.2846 3.94092 13.3085C4.24094 13.333 4.62911 13.3333 5.20003 13.3333H7.3335V2.66659H5.20003C4.62911 2.66659 4.24094 2.66682 3.94092 2.69133C3.64864 2.71521 3.49896 2.75864 3.3947 2.81177C3.14386 2.93959 2.93984 3.14362 2.81201 3.39445C2.75889 3.49872 2.71545 3.6484 2.69157 3.94068C2.66706 4.2407 2.66683 4.62886 2.66683 5.19979V10.8001ZM14.6668 10.8001C14.6668 11.349 14.6675 11.801 14.6375 12.1679C14.6069 12.5426 14.5413 12.8873 14.3765 13.2109C14.1208 13.7125 13.7128 14.1206 13.2111 14.3762C12.8876 14.5411 12.5428 14.6067 12.1681 14.6373C11.8012 14.6673 11.3493 14.6666 10.8003 14.6666H5.20003C4.65104 14.6666 4.19912 14.6673 3.8322 14.6373C3.45749 14.6067 3.11276 14.5411 2.78923 14.3762C2.28756 14.1206 1.87951 13.7125 1.62386 13.2109C1.45901 12.8873 1.39341 12.5426 1.36279 12.1679C1.33282 11.801 1.3335 11.349 1.3335 10.8001V5.19979C1.3335 4.6508 1.33282 4.19887 1.36279 3.83195C1.39341 3.45725 1.45901 3.11252 1.62386 2.78898C1.87951 2.28731 2.28756 1.87926 2.78923 1.62362C3.11276 1.45877 3.45749 1.39317 3.8322 1.36255C4.19912 1.33257 4.65104 1.33325 5.20003 1.33325H10.8003C11.3493 1.33325 11.8012 1.33257 12.1681 1.36255C12.5428 1.39317 12.8876 1.45877 13.2111 1.62362C13.7128 1.87926 14.1208 2.28731 14.3765 2.78898C14.5413 3.11252 14.6069 3.45725 14.6375 3.83195C14.6675 4.19887 14.6668 4.6508 14.6668 5.19979V10.8001Z" fill="black" fill-opacity="0.48"/>
</svg>
