<svg width="16" height="16" viewBox="0 0 16 16" fill="none" xmlns="http://www.w3.org/2000/svg">
<path d="M8.99974 8.74093C8.99974 8.61936 8.99612 8.45787 9.03165 8.29822C9.05987 8.1715 9.1062 8.0495 9.16967 7.93624C9.24961 7.79364 9.3601 7.67591 9.44115 7.58533L13.2452 3.33338C13.5061 3.04172 13.6708 2.85654 13.7758 2.71554C13.7829 2.70604 13.7875 2.69582 13.7934 2.68755C13.7835 2.68646 13.773 2.68402 13.7615 2.68299C13.5863 2.66724 13.3384 2.66671 12.947 2.66671H3.05183C2.66069 2.66671 2.41311 2.66727 2.23803 2.68299C2.22612 2.68406 2.21501 2.68642 2.20482 2.68755C2.21079 2.69591 2.21589 2.70592 2.22305 2.71554C2.32807 2.85652 2.49275 3.04178 2.75365 3.33338L6.55769 7.58533C6.63874 7.67593 6.7492 7.79358 6.82917 7.93624C6.87686 8.02133 6.91509 8.11124 6.9431 8.20447L6.96784 8.29822L6.98737 8.41801C7.00131 8.53637 6.99974 8.64979 6.99974 8.74093V13.015L8.99974 12.2149V8.74093ZM10.3331 12.3054C10.3331 12.3825 10.3431 12.5942 10.2699 12.7904C10.2142 12.9397 10.1235 13.0738 10.0056 13.181C9.85061 13.3219 9.65014 13.3913 9.57852 13.42L7.31159 14.3262C7.20105 14.3704 7.07645 14.4212 6.96719 14.4538C6.85607 14.487 6.67318 14.5308 6.46264 14.487C6.20466 14.4334 5.97801 14.2796 5.83243 14.0599C5.71388 13.8809 5.68667 13.6956 5.67618 13.5801C5.66586 13.4664 5.66641 13.3315 5.66641 13.2123V8.74093C5.66641 8.66016 5.66635 8.61972 5.66511 8.59054L5.66446 8.58924C5.66399 8.58866 5.66367 8.58791 5.66316 8.58728C5.64463 8.56471 5.61806 8.5342 5.5642 8.474L1.76016 4.2227C1.51695 3.95088 1.30349 3.71303 1.15404 3.51242C1.01459 3.32521 0.838569 3.05443 0.825266 2.71945C0.808798 2.30349 0.987359 1.9038 1.30834 1.63872C1.5668 1.42531 1.88575 1.37577 2.11823 1.35486C2.36739 1.33246 2.68704 1.33338 3.05183 1.33338H12.947C13.3118 1.33338 13.6314 1.33247 13.8806 1.35486C14.1131 1.37576 14.432 1.42533 14.6905 1.63872C15.0115 1.90379 15.1907 2.30345 15.1742 2.71945C15.1609 3.05442 14.9849 3.32521 14.8454 3.51242C14.696 3.71306 14.4819 3.95082 14.2387 4.2227L10.4346 8.474C10.3808 8.5342 10.3542 8.56471 10.3357 8.58728L10.3344 8.58859C10.3344 8.58921 10.3344 8.58987 10.3344 8.59054C10.3331 8.61972 10.3331 8.66016 10.3331 8.74093V12.3054Z" fill="#8F8F8F"/>
</svg>
