<svg width="16" height="16" viewBox="0 0 16 16" fill="none" xmlns="http://www.w3.org/2000/svg">
<path d="M13.9992 8.66666H12.0786C11.8743 8.66666 11.6876 8.78212 11.5962 8.96484C11.279 9.59927 10.6304 10 9.92107 10H6.07862C5.3693 10 4.72071 9.59927 4.40349 8.96484C4.31213 8.78212 4.12536 8.66666 3.92107 8.66666H2.0005C2.00045 8.69394 1.99984 8.72337 1.99984 8.7552V10.1335C1.99984 10.7044 2.00008 11.0925 2.02458 11.3926C2.04846 11.6849 2.0919 11.8345 2.14503 11.9388C2.27285 12.1896 2.47687 12.3937 2.72771 12.5215C2.83198 12.5746 2.98166 12.618 3.27393 12.6419C3.57396 12.6664 3.96212 12.6667 4.53305 12.6667H11.4666C12.0376 12.6667 12.4257 12.6664 12.7258 12.6419C13.018 12.618 13.1677 12.5746 13.272 12.5215C13.5228 12.3937 13.7268 12.1896 13.8547 11.9388C13.9078 11.8345 13.9512 11.6849 13.9751 11.3926C13.9996 11.0925 13.9998 10.7044 13.9998 10.1335V8.7552C13.9998 8.72337 13.9992 8.69394 13.9992 8.66666ZM5.97771 3.33333C5.2116 3.33333 4.98731 3.3421 4.80128 3.40625C4.61449 3.47067 4.4444 3.57595 4.30323 3.71419C4.16262 3.8519 4.05411 4.04837 3.71143 4.73372L2.41195 7.33333H3.92107C4.63039 7.33333 5.27898 7.73405 5.5962 8.36848C5.68756 8.55121 5.87433 8.66666 6.07862 8.66666H9.92107C10.1254 8.66666 10.3121 8.55121 10.4035 8.36848C10.7207 7.73405 11.3693 7.33333 12.0786 7.33333H13.5877L12.2883 4.73372C11.9456 4.04837 11.8371 3.8519 11.6965 3.71419C11.5553 3.57595 11.3852 3.47067 11.1984 3.40625C11.0124 3.3421 10.7881 3.33333 10.022 3.33333H5.97771ZM15.3332 10.1335C15.3332 10.6825 15.3339 11.1344 15.3039 11.5013C15.2733 11.876 15.2077 12.2207 15.0428 12.5443C14.7872 13.0459 14.3791 13.454 13.8774 13.7096C13.5539 13.8745 13.2092 13.9401 12.8345 13.9707C12.4676 14.0007 12.0156 14 11.4666 14H4.53305C3.98405 14 3.53213 14.0007 3.16521 13.9707C2.79051 13.9401 2.44578 13.8745 2.12224 13.7096C1.62057 13.454 1.21252 13.0459 0.956876 12.5443C0.792026 12.2207 0.726428 11.876 0.695808 11.5013C0.66583 11.1344 0.666511 10.6825 0.666512 10.1335V8.7552C0.666511 8.49137 0.665333 8.29664 0.692553 8.10221C0.715429 7.93891 0.753253 7.77802 0.805834 7.62174C0.868456 7.43564 0.956691 7.26208 1.07471 7.02604L2.51938 4.13736C2.81878 3.53855 3.03193 3.09311 3.37029 2.76171C3.65265 2.48518 3.99276 2.27471 4.36638 2.14583C4.81415 1.99138 5.30812 2 5.97771 2H10.022C10.6916 2 11.1855 1.99138 11.6333 2.14583C12.0069 2.27471 12.347 2.48518 12.6294 2.76171C12.9678 3.09311 13.1809 3.53856 13.4803 4.13736L14.925 7.02604C15.043 7.26209 15.1312 7.43564 15.1939 7.62174C15.2464 7.77803 15.2843 7.93892 15.3071 8.10221C15.3344 8.29664 15.3332 8.49137 15.3332 8.7552V10.1335Z" fill="black" fill-opacity="0.48"/>
</svg>
