<svg width="16" height="16" viewBox="0 0 16 16" fill="none" xmlns="http://www.w3.org/2000/svg">
<path fill-rule="evenodd" clip-rule="evenodd" d="M8 2H13.3333C13.7015 2 14 2.29848 14 2.66667V8H12.6667V4.27614L8.4714 8.4714L7.5286 7.5286L11.7239 3.33333H8V2ZM4 5.33333C3.63181 5.33333 3.33333 5.63181 3.33333 6V12C3.33333 12.3682 3.63181 12.6667 4 12.6667H10C10.3682 12.6667 10.6667 12.3682 10.6667 12V10H12V12C12 13.1046 11.1046 14 10 14H4C2.89543 14 2 13.1046 2 12V6C2 4.89543 2.89543 4 4 4H6V5.33333H4Z" fill="#0072E0"/>
</svg>
