<svg width="16" height="16" viewBox="0 0 16 16" fill="none" xmlns="http://www.w3.org/2000/svg">
<path fill-rule="evenodd" clip-rule="evenodd" d="M7.33301 1.33337C4.0193 1.33337 1.33301 4.01967 1.33301 7.33337C1.33301 10.6471 4.0193 13.3334 7.33301 13.3334C8.74968 13.3334 10.0517 12.8424 11.0781 12.0213L13.5283 14.4714C13.7886 14.7318 14.2107 14.7318 14.4711 14.4714C14.7314 14.2111 14.7314 13.789 14.4711 13.5286L12.0209 11.0785C12.842 10.0521 13.333 8.75005 13.333 7.33337C13.333 4.01967 10.6467 1.33337 7.33301 1.33337ZM2.66634 7.33337C2.66634 4.75604 4.75568 2.66671 7.33301 2.66671C9.91034 2.66671 11.9997 4.75604 11.9997 7.33337C11.9997 9.9107 9.91034 12 7.33301 12C4.75568 12 2.66634 9.9107 2.66634 7.33337Z" fill="#8F8F8F"/>
</svg>
