<svg width="16" height="16" viewBox="0 0 16 16" fill="none" xmlns="http://www.w3.org/2000/svg">
<path fill-rule="evenodd" clip-rule="evenodd" d="M7.3335 1.33334C4.01979 1.33334 1.3335 4.01963 1.3335 7.33334C1.3335 10.6471 4.01979 13.3333 7.3335 13.3333C8.75017 13.3333 10.0522 12.8424 11.0786 12.0213L13.5288 14.4714C13.7891 14.7318 14.2112 14.7318 14.4716 14.4714C14.7319 14.2111 14.7319 13.789 14.4716 13.5286L12.0214 11.0785C12.8425 10.052 13.3335 8.75002 13.3335 7.33334C13.3335 4.01963 10.6472 1.33334 7.3335 1.33334ZM2.66683 7.33334C2.66683 4.75601 4.75617 2.66668 7.3335 2.66668C9.91082 2.66668 12.0002 4.75601 12.0002 7.33334C12.0002 9.91067 9.91082 12 7.3335 12C4.75617 12 2.66683 9.91067 2.66683 7.33334Z" fill="black" fill-opacity="0.48"/>
</svg>
