<svg width="16" height="16" viewBox="0 0 16 16" fill="none" xmlns="http://www.w3.org/2000/svg">
<g clip-path="url(#clip0_243_14785)">
<path d="M13.9998 7.99984C13.9998 4.68613 11.3135 1.99984 7.99984 1.99984C4.68613 1.99984 1.99984 4.68613 1.99984 7.99984C1.99984 11.3135 4.68613 13.9998 7.99984 13.9998C11.3135 13.9998 13.9998 11.3135 13.9998 7.99984ZM10.1952 4.86182C10.4555 4.60147 10.8775 4.60147 11.1379 4.86182C11.3982 5.12217 11.3982 5.54418 11.1379 5.80452L5.80452 11.1379C5.54418 11.3982 5.12217 11.3982 4.86182 11.1379C4.60147 10.8775 4.60147 10.4555 4.86182 10.1952L10.1952 4.86182ZM9.99984 8.99984C10.5521 8.99984 10.9998 9.44755 10.9998 9.99984C10.9998 10.5521 10.5521 10.9998 9.99984 10.9998C9.44755 10.9998 8.99984 10.5521 8.99984 9.99984C8.99984 9.44755 9.44755 8.99984 9.99984 8.99984ZM5.99984 4.99984C6.55212 4.99984 6.99984 5.44755 6.99984 5.99984C6.99984 6.55212 6.55212 6.99984 5.99984 6.99984C5.44755 6.99984 4.99984 6.55212 4.99984 5.99984C4.99984 5.44755 5.44755 4.99984 5.99984 4.99984ZM15.3332 7.99984C15.3332 12.0499 12.0499 15.3332 7.99984 15.3332C3.94975 15.3332 0.666504 12.0499 0.666504 7.99984C0.666504 3.94975 3.94975 0.666504 7.99984 0.666504C12.0499 0.666504 15.3332 3.94975 15.3332 7.99984Z" fill="black" fill-opacity="0.48"/>
</g>
<defs>
<clipPath id="clip0_243_14785">
<rect width="16" height="16" fill="white"/>
</clipPath>
</defs>
</svg>
