<svg width="16" height="16" viewBox="0 0 16 16" fill="none" xmlns="http://www.w3.org/2000/svg">
<path d="M3.99967 7.99996C5.24224 7.99996 6.28633 8.8498 6.58236 9.99996H13.9997C14.3679 9.99996 14.6663 10.2984 14.6663 10.6666C14.6663 11.0348 14.3679 11.3333 13.9997 11.3333H6.58236C6.28633 12.4834 5.24224 13.3333 3.99967 13.3333C2.52692 13.3333 1.33301 12.1394 1.33301 10.6666C1.33301 9.19387 2.52692 7.99996 3.99967 7.99996ZM13.333 5.33329C13.333 4.59691 12.7361 3.99996 11.9997 3.99996C11.2633 3.99996 10.6663 4.59691 10.6663 5.33329C10.6663 6.06967 11.2633 6.66663 11.9997 6.66663C12.7361 6.66663 13.333 6.06967 13.333 5.33329ZM2.66634 10.6666C2.66634 11.403 3.26329 12 3.99967 12C4.73605 12 5.33301 11.403 5.33301 10.6666C5.33301 9.93025 4.73605 9.33329 3.99967 9.33329C3.26329 9.33329 2.66634 9.93025 2.66634 10.6666ZM14.6663 5.33329C14.6663 6.80605 13.4724 7.99996 11.9997 7.99996C10.7571 7.99996 9.71302 7.15011 9.41699 5.99996H1.99967C1.63148 5.99996 1.33301 5.70148 1.33301 5.33329C1.33301 4.9651 1.63148 4.66663 1.99967 4.66663H9.41699C9.71302 3.51647 10.7571 2.66663 11.9997 2.66663C13.4724 2.66663 14.6663 3.86053 14.6663 5.33329Z" fill="#8F8F8F"/>
</svg>
